<svg width="32" height="32" viewBox="0 0 32 32" fill="none" xmlns="http://www.w3.org/2000/svg">
<path d="M28 10.9139C28 9.83473 27.4203 8.8387 26.482 8.30556L17.482 3.19192C16.563 2.66975 15.437 2.66975 14.518 3.19192L5.51797 8.30556C4.57965 8.8387 4 9.83473 4 10.9139V21.0861C4 22.1653 4.57965 23.1613 5.51797 23.6945L14.518 28.8081C15.437 29.3303 16.563 29.3303 17.482 28.8081L26.482 23.6945C27.4203 23.1613 28 22.1653 28 21.0861V10.9139Z" fill="white"/>
<path d="M12.784 12.7273V20H11.2925L8.39835 15.8026H8.35218V20H6.59437V12.7273H8.10716L10.9694 16.9176H11.0297V12.7273H12.784ZM13.8893 20V12.7273H18.8538V14.1548H15.6471V15.6463H18.5377V17.0774H15.6471V20H13.8893ZM19.501 14.1548V12.7273H25.648V14.1548H23.4427V20H21.7098V14.1548H19.501Z" fill="#171923"/>
</svg>
